<svg id="Layer_1" data-name="Layer 1" xmlns="http://www.w3.org/2000/svg" viewBox="0 0 512 512"><title>lollipop-glyph</title><path d="M439.36,120.47v0A160.29,160.29,0,0,0,244.24,5.09c-.18,0-.36,0-.54.09a160.36,160.36,0,0,0-115,195.1c0,.17,0,.34.08.5a159.36,159.36,0,0,0,48.87,79.76L71.81,463.89A32.08,32.08,0,0,0,127.37,496L233.24,312.59a158.76,158.76,0,0,0,50.54,8.27A161.26,161.26,0,0,0,324,315.75h0A160.32,160.32,0,0,0,439.36,120.47ZM151.19,170.32l-.22.18c-1.71,1.41-3.42,2.88-5.1,4.43l-.07.06a137.91,137.91,0,0,1,15.38-79.56c1-.14,2.09-.31,3.11-.43s1.82-.23,2.7-.3c1.26-.12,2.46-.16,3.68-.25.67,0,1.35-.1,2-.13h0c43-2.1,66.91,20.41,90.74,53.84C228.37,142.75,187,141,151.19,170.32Zm-42.34,315a10.69,10.69,0,1,1-18.52-10.69L194.78,293.66c3,2,6,3.89,9.06,5.68s6.25,3.47,9.44,5ZM219,283.3c-.11-.76-.23-1.53-.32-2.28-.17-1.42-.33-2.83-.45-4.21s-.2-2.61-.28-3.89c-.09-1.62-.17-3.23-.2-4.8-.64-38.63,19.29-61.52,49.08-83.53-5.89,37.55-7.27,76.65,21.58,108.1h0q2.75,3,5.87,5.9c.15.14.27.28.42.42A137.86,137.86,0,0,1,219,283.3ZM278.81,33.81h.13c-.52-.73-1.11-1.45-1.65-2.18s-1.16-1.56-1.77-2.34c-1.77-2.25-3.63-4.49-5.65-6.69l-.3-.34-.07-.08A137.62,137.62,0,0,1,349,37.55c.11.8.23,1.6.33,2.39.21,1.78.39,3.53.52,5.25,3.6,46.41-21.08,70.5-53.33,93.14C301.48,105.62,302.8,67.63,278.81,33.81ZM406.93,225.43c-.95.13-1.92.29-2.85.39s-2.07.25-3.08.33c-1.18.11-2.32.15-3.48.22s-2.34.15-3.48.19v0c-41.26,1.28-64.29-21-84.41-48.77,38.38,5.9,78.24,6.76,109.81-24.77h0l.33-.34c.79-.8,1.59-1.61,2.37-2.45l.53-.55A137.93,137.93,0,0,1,406.93,225.43Z"/></svg>